#!OML:ASF I:\Actors\actors\Patient Classification 1\Patient 1\Session 1\Subject1.ASF
:FULLY-SPECIFIED
:DEGREES
506
root -0.444459 17.6955 7.76119 9.15381 -0.580236 -9.62578
lowerback 11.4904 0.777353 8.02582
upperback 1.82947 2.04144 0.641789
thorax -4.26309 0.894919 -4.14876
lowerneck -19.0808 -0.278269 2.44302
upperneck 36.3038 -2.34105 2.51361
head 16.2038 -0.258439 0.2168
rclavicle -1.39149e-015 1.78906e-014
rhumerus -82.3873 25.6489 -90.6499
rradius 119.038
rwrist -24.704
rhand 57.591 -20.7215
rfingers 7.12502
rthumb 73.9074 -716.501
lclavicle -1.39149e-015 1.78906e-014
lhumerus -88.2184 -29.801 92.3741
lradius 114.13
lwrist 66.9975
lhand 15.2458 -12.1781
lfingers 7.12502
lthumb 40.083 13.0229
rfemur -7.84681 21.2411 25.4007
rtibia 7.06252
rfoot -11.3159 -23.4671
rtoes -0.0369503
lfemur -0.0651498 -35.9964 -8.03237
ltibia -2.422
lfoot -14.215 46.0358
ltoes 5.81358
507
root -0.439155 17.6916 7.77121 9.19073 -0.587726 -9.67539
lowerback 11.6014 0.733166 8.12549
upperback 1.70603 2.01068 0.59771
thorax -4.45421 0.866453 -4.2528
lowerneck -18.9398 -0.245537 2.58412
upperneck 35.9749 -2.2984 2.4446
head 16.0008 -0.239796 0.167135
rclavicle 1.49089e-014 4.77083e-015
rhumerus -80.5433 23.9788 -90.5922
rradius 116.133
rwrist -23.9115
rhand 56.4265 -19.6558
rfingers 7.12502
rthumb 73.4593 -719.108
lclavicle 1.49089e-014 4.77083e-015
lhumerus -85.2402 -26.9954 90.7
lradius 111.216
lwrist 66.3503
lhand 13.1247 -11.5675
lfingers 7.12502
lthumb 38.0836 14.2089
rfemur -7.78465 21.1214 25.4307
rtibia 6.91493
rfoot -11.2411 -23.3372
rtoes -0.132528
lfemur 0.0725185 -36.3225 -8.08131
ltibia -2.52431
lfoot -14.45 46.3429
ltoes 6.12092
508
root -0.435242 17.6845 7.77628 9.25805 -0.489759 -9.5888
lowerback 11.6883 0.674006 8.10599
upperback 1.5084 1.94585 0.526471
thorax -4.71884 0.817601 -4.31418
lowerneck -19.0118 -0.269102 2.39024
upperneck 36.025 -2.34322 2.64096
head 16.05 -0.255234 0.278093
rclavicle 2.42517e-014 2.06736e-014
rhumerus -77.9118 22.3746 -90.2472
rradius 112.051
rwrist -23.1927
rhand 55.8853 -18.8882
rfingers 7.12502
rthumb 73.2282 -719.977
lclavicle 2.42517e-014 2.06736e-014
lhumerus -81.7125 -24.3321 89.1843
lradius 107.248
lwrist 64.9691
lhand 11.1153 -11.3825
lfingers 7.12502
lthumb 36.1834 14.8887
rfemur -7.79246 21.0674 25.2884
rtibia 6.79857
rfoot -11.2393 -23.3775
rtoes -0.193389
lfemur 0.0107306 -36.5645 -8.16832
ltibia -2.52416
lfoot -14.55 46.4666
ltoes 6.36073
509
root -0.43453 17.6762 7.781 9.31268 -0.550011 -9.40294
lowerback 11.7584 0.717321 7.90245
upperback 1.3059 1.98946 0.42618
thorax -4.97038 0.825796 -4.31823
lowerneck -18.5524 -0.203697 2.76626
upperneck 35.5024 -2.23775 2.3772
head 15.6707 -0.213102 0.114209
rclavicle 2.10712e-014 -7.15625e-015
rhumerus -74.5773 20.8308 -89.6756
rradius 107.003
rwrist -22.3654
rhand 54.5572 -18.9697
rfingers 7.12502
rthumb 72.6044 -723.875
lclavicle 2.10712e-014 -7.15625e-015
lhumerus -77.5824 -21.9324 87.8157
lradius 102.048
lwrist 63.455
lhand 10.3664 -11.7217
lfingers 7.12502
lthumb 35.4737 14.7224
rfemur -7.80602 21.1664 25.0328
rtibia 6.71038
rfoot -11.263 -23.4296
rtoes -0.132399
lfemur 0.0564686 -36.7983 -8.42978
ltibia -2.55431
lfoot -14.8394 46.702
ltoes 6.74934
510
root -0.436196 17.6673 7.78328 9.35902 -0.752184 -9.34159
lowerback 11.8374 0.799506 7.71528
upperback 1.08025 2.09139 0.395361
thorax -5.24642 0.861727 -4.26775
lowerneck -18.3143 -0.244469 2.64083
upperneck 35.3447 -2.30529 2.56193
head 15.5427 -0.237589 0.201621
rclavicle 4.96962e-015 2.78299e-014
rhumerus -70.7364 19.5473 -88.9943
rradius 100.996
rwrist -21.6253
rhand 53.3012 -19.1816
rfingers 7.12502
rthumb 71.9464 -727.435
lclavicle 4.96962e-015 2.78299e-014
lhumerus -73.0337 -19.7749 86.8065
lradius 95.8455
lwrist 61.8735
lhand 9.10649 -11.1858
lfingers 7.12502
lthumb 34.2784 15.5357
rfemur -7.83329 21.3405 24.9337
rtibia 6.66831
rfoot -11.2186 -23.3941
rtoes -0.204649
lfemur 0.228389 -37.0137 -8.59594
ltibia -2.68133
lfoot -15.3229 47.0511
ltoes 7.28339
511
root -0.439021 17.6606 7.78651 9.47128 -1.0643 -9.1351
lowerback 11.7865 0.889888 7.27497
upperback 0.806853 2.16193 0.38179
thorax -5.515 0.888426 -4.04876
lowerneck -17.865 -0.202779 2.57823
upperneck 35.1342 -2.22393 2.64971
head 15.3369 -0.208942 0.263149
rclavicle -5.56597e-015 3.10104e-014
rhumerus -66.6968 19.0135 -88.5921
rradius 94.0943
rwrist -21.2942
rhand 52.1947 -19.8604
rfingers 7.12502
rthumb 71.3175 -730.856
lclavicle -5.56597e-015 3.10104e-014
lhumerus -68.3215 -17.7521 86.1999
lradius 88.7733
lwrist 60.8504
lhand 7.25085 -11.1495
lfingers 7.12502
lthumb 32.5144 15.9519
rfemur -7.98048 21.7082 24.6201
rtibia 6.68351
rfoot -11.22 -23.4408
rtoes 0.0279911
lfemur 0.35615 -37.3575 -8.90128
ltibia -2.81923
lfoot -15.9498 47.5809
ltoes 8.14136
512
root -0.443681 17.6561 7.79172 9.62295 -1.4472 -8.59134
lowerback 11.5697 1.061 6.50587
upperback 0.49999 2.27848 0.280198
thorax -5.72997 0.948734 -3.74005
lowerneck -17.4298 -0.220309 2.3802
upperneck 35.0557 -2.21313 2.80127
head 15.2016 -0.215523 0.363354
rclavicle 7.15625e-015 7.95139e-015
rhumerus -62.6765 19.1003 -88.5545
rradius 86.5321
rwrist -21.4304
rhand 50.675 -20.926
rfingers 7.12502
rthumb 70.3871 -735.385
lclavicle 7.15625e-015 7.95139e-015
lhumerus -63.4169 -16.8351 86.2459
lradius 80.5457
lwrist 59.6793
lhand 3.35246 -11.2158
lfingers 7.12502
lthumb 28.7973 16.5827
rfemur -8.22719 22.2031 23.8624
rtibia 6.73135
rfoot -11.309 -23.6121
rtoes 0.482743
lfemur 0.395218 -37.7834 -9.57034
ltibia -2.89025
lfoot -16.3913 48.2121
ltoes 8.83921
513
root -0.445719 17.6467 7.79273 9.62884 -1.69738 -8.24256
lowerback 11.3899 1.21575 6.13429
upperback 0.205717 2.42976 0.198264
thorax -5.93613 1.01848 -3.64059
lowerneck -17.0117 -0.287273 2.26622
upperneck 35.1826 -2.25423 2.79081
head 15.1648 -0.250723 0.373726
rclavicle -3.37934e-015 -2.22639e-014
rhumerus -58.9459 19.2886 -88.6171
rradius 78.8194
rwrist -21.879
rhand 48.3732 -20.9824
rfingers 7.12502
rthumb 68.8524 -740.064
lclavicle -3.37934e-015 -2.22639e-014
lhumerus -58.9463 -16.7348 86.7131
lradius 72.4949
lwrist 56.8151
lhand -2.30384 -9.98303
lfingers 7.12502
lthumb 23.3819 18.6166
rfemur -8.25943 22.3751 23.4217
rtibia 6.69064
rfoot -11.1981 -23.65
rtoes 0.15213
lfemur 0.587101 -38.1044 -10.1328
ltibia -2.95589
lfoot -16.5415 48.6932
ltoes 8.94874
514
root -0.441523 17.6297 7.78763 9.32869 -1.7252 -8.48344
lowerback 11.4845 1.24472 6.53603
upperback -0.0209183 2.5437 0.279361
thorax -6.20648 1.04855 -3.80728
lowerneck -16.6764 -0.340883 2.25293
upperneck 35.5224 -2.27791 2.65827
head 15.246 -0.277237 0.320436
rclavicle -1.15295e-014 3.18055e-015
rhumerus -56.0033 19.7995 -88.8673
rradius 72.178
rwrist -21.2221
rhand 46.2187 -22.7968
rfingers 7.12502
rthumb 67.3032 -745.602
lclavicle -1.15295e-014 3.18055e-015
lhumerus -55.0626 -17.3196 87.3865
lradius 65.1078
lwrist 52.1808
lhand -3.53181 -10.1996
lfingers 7.12502
lthumb 22.2035 18.5451
rfemur -7.81802 22.1921 23.869
rtibia 6.542
rfoot -10.9333 -23.4995
rtoes -0.724272
lfemur 1.26534 -38.4265 -10.2916
ltibia -3.17214
lfoot -16.6142 49.0446
ltoes 9.03227
515
root -0.436969 17.6104 7.77987 8.83154 -1.65044 -9.05607
lowerback 11.7738 1.22251 7.3063
upperback -0.174377 2.66204 0.460802
thorax -6.49772 1.06912 -4.08177
lowerneck -16.6104 -0.447142 1.96395
upperneck 36.1632 -2.45855 2.91251
head 15.5525 -0.344151 0.454712
rclavicle 2.76311e-014 1.59028e-014
rhumerus -54.1266 20.6907 -89.1217
rradius 67.581
rwrist -17.5048
rhand 42.0113 -24.8099
rfingers 7.12502
rthumb 64.0401 -753.508
lclavicle 2.76311e-014 1.59028e-014
lhumerus -53.1484 -19.4696 88.7934
lradius 60.1172
lwrist 45.624
lhand -5.07399 -9.31445
lfingers 7.12502
lthumb 20.7223 19.5992
rfemur -7.101 21.9858 24.8202
rtibia 6.39634
rfoot -10.8085 -23.3445
rtoes -1.29097
lfemur 2.2362 -38.6089 -10.1957
ltibia -3.50179
lfoot -16.5271 49.2007
ltoes 9.13743
